<svg xmlns="http://www.w3.org/2000/svg" width="221.376" height="47.844" viewBox="0 0 221.376 47.844">
  <defs>
    <style>
      .cls-1 {
        fill: #fbfaf8;
        fill-rule: evenodd;
      }
    </style>
  </defs>
  <path id="SPACES_copia_3" data-name="SPACES copia 3" class="cls-1" d="M172,666.939A33.047,33.047,0,0,0,148.06,643,33.049,33.049,0,0,0,172,619.078,33.046,33.046,0,0,0,195.939,643,33.045,33.045,0,0,0,172,666.939Zm0-33.413A16.047,16.047,0,0,1,162.534,643,16.017,16.017,0,0,1,172,652.466,16.043,16.043,0,0,1,181.467,643,16.051,16.051,0,0,1,172,633.526Zm45.292,20.62A11.006,11.006,0,0,0,223.535,656l5.114,0.105q5.873,0,8.294-1.907a6.52,6.52,0,0,0,2.421-5.441,5.624,5.624,0,0,0-1.881-4.315,11.049,11.049,0,0,0-4.582-2.487q-2.7-.756-5.375-1.292a30.076,30.076,0,0,1-4.556-1.24q-1.881-.7-1.881-1.81,0-2.022,2.97-2.021l5.079,0.105q2.768,0,3.561,1.731a2.505,2.505,0,0,0,2.312,1.732h2.008a1.877,1.877,0,0,0,1.13-.457,1.774,1.774,0,0,0,.591-1.5,5.448,5.448,0,0,0-2.776-4.631,10.977,10.977,0,0,0-6.235-1.855l-4.287-.1q-5.889,0-8.3,1.907a6.529,6.529,0,0,0-2.413,5.44,5.6,5.6,0,0,0,1,3.331,6.969,6.969,0,0,0,2.624,2.224,23.447,23.447,0,0,0,3.552,1.406,39.826,39.826,0,0,0,3.89.994q1.958,0.394,3.577.8Q233,647.6,233,649.128q0,2.02-2.97,2.021l-5.906-.123q-2.768,0-3.561-1.723a2.5,2.5,0,0,0-2.311-1.722h-2.009a1.911,1.911,0,0,0-1.147.448,1.746,1.746,0,0,0-.591,1.485A5.443,5.443,0,0,0,217.292,654.146Zm24.6,1.336a1.524,1.524,0,0,0,1.131.484H246.2a1.5,1.5,0,0,0,1.122-.484,1.624,1.624,0,0,0,.464-1.169v-3.955h8.083q10.209,0,10.21-9.8t-10.21-9.8H242.994a1.462,1.462,0,0,0-1.114.493,1.671,1.671,0,0,0-.456,1.177v21.885A1.611,1.611,0,0,0,241.9,655.482Zm5.889-19.749h6.16a7.693,7.693,0,0,1,4.3.993q1.467,0.993,1.468,3.832t-1.468,3.832a7.684,7.684,0,0,1-4.3.993h-6.16v-9.65Zm17.459,19.143a1.184,1.184,0,0,0,.278.694,1.087,1.087,0,0,0,.945.4h3.325a1.989,1.989,0,0,0,1.248-.466,2.078,2.078,0,0,0,.76-1.187l1.13-4.429h12v4.429a1.641,1.641,0,0,0,.448,1.187,1.511,1.511,0,0,0,1.139.466h3.172a1.6,1.6,0,0,0,1.6-1.618V632.393a1.725,1.725,0,0,0-.413-1.142,1.3,1.3,0,0,0-1.038-.493h-9.095q-9.484.018-11.2,6.856L265.3,654.348A2.77,2.77,0,0,0,265.245,654.876Zm10.42-15.61a4.693,4.693,0,0,1,1.629-2.575,4.407,4.407,0,0,1,2.826-.958h4.809v9.176H274.18Zm30.208,16.84h4.117a11.465,11.465,0,0,0,6.767-2.065,6.562,6.562,0,0,0,2.936-5.669,2.168,2.168,0,0,0-.464-1.336,1.491,1.491,0,0,0-1.257-.615h-2.008a2.693,2.693,0,0,0-2.43,1.951,4.237,4.237,0,0,1-4.134,2.777h-3.358q-3.7,0-5.012-1.661t-1.317-6.126q0-4.464,1.317-6.117t5.012-1.652h3a4.265,4.265,0,0,1,4.151,2.777,2.681,2.681,0,0,0,2.414,1.933h2.008a1.911,1.911,0,0,0,1.147-.448,1.746,1.746,0,0,0,.591-1.485,6.581,6.581,0,0,0-2.945-5.678,11.468,11.468,0,0,0-6.775-2.074h-3.763q-6.261,0-9.391,3.12t-3.131,9.633q0,6.511,3.131,9.624t9.391,3.111h0Zm16.184-.624a1.524,1.524,0,0,0,1.131.484H342.56a1.524,1.524,0,0,0,1.131-.484,1.61,1.61,0,0,0,.472-1.169v-1.687a1.61,1.61,0,0,0-.455-1.16,1.466,1.466,0,0,0-1.1-.475H327.946v-5.185H340.6a1.5,1.5,0,0,0,1.122-.484,1.628,1.628,0,0,0,.464-1.169V642.5a1.628,1.628,0,0,0-.464-1.169,1.5,1.5,0,0,0-1.122-.484H327.946v-5.115h14.7a1.5,1.5,0,0,0,1.122-.483,1.629,1.629,0,0,0,.464-1.169v-1.653a1.656,1.656,0,0,0-.464-1.177,1.489,1.489,0,0,0-1.122-.493H323.188a1.542,1.542,0,0,0-1.131.475,1.58,1.58,0,0,0-.472,1.16v21.885A1.652,1.652,0,0,0,322.057,655.482Zm25.3-1.336A11.009,11.009,0,0,0,353.6,656l5.113,0.105q5.872,0,8.294-1.907a6.521,6.521,0,0,0,2.422-5.441,5.625,5.625,0,0,0-1.882-4.315,11.042,11.042,0,0,0-4.582-2.487q-2.7-.756-5.374-1.292a30.092,30.092,0,0,1-4.557-1.24q-1.881-.7-1.881-1.81,0-2.022,2.97-2.021L359.2,635.7q2.768,0,3.561,1.731a2.506,2.506,0,0,0,2.312,1.732h2.008a1.88,1.88,0,0,0,1.131-.457,1.776,1.776,0,0,0,.59-1.5,5.446,5.446,0,0,0-2.776-4.631,10.974,10.974,0,0,0-6.235-1.855l-4.286-.1q-5.891,0-8.3,1.907a6.529,6.529,0,0,0-2.413,5.44,5.607,5.607,0,0,0,1,3.331,6.969,6.969,0,0,0,2.624,2.224,23.447,23.447,0,0,0,3.552,1.406,39.9,39.9,0,0,0,3.89.994q1.958,0.394,3.578.8,3.627,0.879,3.628,2.409,0,2.02-2.97,2.021l-5.906-.123q-2.769,0-3.561-1.723a2.506,2.506,0,0,0-2.312-1.722h-2.008a1.913,1.913,0,0,0-1.148.448,1.746,1.746,0,0,0-.59,1.485A5.444,5.444,0,0,0,347.354,654.146Z" transform="translate(-148.062 -619.094)"/>
</svg>
